STARTFONT 2.1
FONT -FontForge-Frutiger LT 55 Roman-Book-R-Normal--32-310-75-75-P-174-ISO8859-1
SIZE 31 75 75
FONTBOUNDINGBOX 37 38 -5 -8
COMMENT "Generated by fontforge, http://fontforge.sourceforge.net"
COMMENT "Part of the digitally encoded machine readable outline data for producing the Typefaces provided is copyrighted (c) 1988, 1990, 1994, 2001, 2002, 2003, Linotype Library GmbH, www.linotype.com. All rights reserved. This software is the property of Linotype Library GmbH, and may not be reproduced, used, displayed, modified, disclosed or transferred Library GmbH. Copyright (c) 1988, 1990, 1994, 2001, 2002, 2003, Adobe Systems Incorporated. All rights reserved."
STARTPROPERTIES 40
FOUNDRY "FontForge"
FAMILY_NAME "Frutiger LT 55 Roman"
WEIGHT_NAME "Book"
SLANT "R"
SETWIDTH_NAME "Normal"
ADD_STYLE_NAME ""
PIXEL_SIZE 32
POINT_SIZE 310
RESOLUTION_X 75
RESOLUTION_Y 75
SPACING "P"
AVERAGE_WIDTH 174
CHARSET_REGISTRY "ISO8859"
CHARSET_ENCODING "1"
FONTNAME_REGISTRY ""
CHARSET_COLLECTIONS "ISOLatin1Encoding"
FONT_NAME "FrutigerLT-Roman"
FACE_NAME "Frutiger LT 55 Roman"
COPYRIGHT "Part of the digitally encoded machine readable outline data for producing the Typefaces provided is copyrighted (c) 1988, 1990, 1994, 2001, 2002, 2003, Linotype Library GmbH, www.linotype.com. All rights reserved. This software is the property of Linotype Library GmbH, and may not be reproduced, used, displayed, modified, disclosed or transferred Library GmbH. Copyright (c) 1988, 1990, 1994, 2001, 2002, 2003, Adobe Systems Incorporated. All rights reserved."
FONT_VERSION "6.04"
FONT_ASCENT 26
FONT_DESCENT 6
UNDERLINE_POSITION -4
UNDERLINE_THICKNESS 2
X_HEIGHT 16
CAP_HEIGHT 22
RAW_ASCENT 800
RAW_DESCENT 200
NORM_SPACE 9
RELATIVE_WEIGHT 40
RELATIVE_SETWIDTH 50
SUPERSCRIPT_X 0
SUPERSCRIPT_Y 9
SUPERSCRIPT_SIZE 6
SUBSCRIPT_X 0
SUBSCRIPT_Y 9
SUBSCRIPT_SIZE 6
FIGURE_WIDTH 18
AVG_LOWERCASE_WIDTH 173
AVG_UPPERCASE_WIDTH 207
ENDPROPERTIES
CHARS 232
STARTCHAR space
ENCODING 32
SWIDTH 278 0
DWIDTH 9 0
BBX 1 1 0 0
BITMAP
00
ENDCHAR
STARTCHAR exclam
ENCODING 33
SWIDTH 389 0
DWIDTH 12 0
BBX 4 23 4 0
BITMAP
F0
F0
F0
E0
E0
E0
E0
E0
E0
E0
E0
E0
E0
E0
E0
E0
00
00
00
F0
F0
F0
F0
ENDCHAR
STARTCHAR quotedbl
ENCODING 34
SWIDTH 556 0
DWIDTH 18 0
BBX 8 8 5 15
BITMAP
E7
E7
E7
E7
E7
E7
E7
E7
ENDCHAR
STARTCHAR numbersign
ENCODING 35
SWIDTH 556 0
DWIDTH 18 0
BBX 16 23 1 0
BITMAP
071C
061C
0618
0618
0618
0E18
0E38
7FFF
7FFF
0C30
0C30
0C30
1C30
1C30
FFFE
FFFE
1870
1860
1860
3860
3860
38E0
38E0
ENDCHAR
STARTCHAR dollar
ENCODING 36
SWIDTH 556 0
DWIDTH 18 0
BBX 13 29 2 -3
BITMAP
0300
0300
0300
07E0
1FF0
3FF0
7B10
7300
E300
E300
7300
7B00
7F00
3F80
0FE0
03F0
03F0
0378
0338
0338
0338
0338
4370
7FF0
7FE0
7F80
0300
0300
0300
ENDCHAR
STARTCHAR percent
ENCODING 37
SWIDTH 1000 0
DWIDTH 32 0
BBX 25 24 4 -1
BITMAP
1E003000
7F006000
7380E000
E180C000
E1C1C000
E1C18000
E1C30000
E1C30000
E1C60000
E18E0000
738C3C00
7F1CFE00
1E18E700
0031C300
0071C380
0061C380
00E1C380
00C1C380
0181C380
0181C300
0300E700
0700FE00
06003C00
0E000000
ENDCHAR
STARTCHAR ampersand
ENCODING 38
SWIDTH 722 0
DWIDTH 23 0
BBX 19 23 3 0
BITMAP
03E000
0FF800
1F7800
1C1C00
1C1C00
1C1C00
1C1C00
1C3800
0E7800
0FE000
07C000
1FC1C0
3DE1C0
78F1C0
F07380
E07B80
E03F80
E01F00
F00F00
701F80
7EFFC0
3FFBC0
0FE1E0
ENDCHAR
STARTCHAR quotesingle
ENCODING 39
SWIDTH 278 0
DWIDTH 9 0
BBX 3 8 3 15
BITMAP
E0
E0
E0
E0
E0
E0
E0
E0
ENDCHAR
STARTCHAR parenleft
ENCODING 40
SWIDTH 333 0
DWIDTH 11 0
BBX 8 28 2 -4
BITMAP
07
0E
0E
1C
1C
38
38
70
70
70
E0
E0
E0
E0
E0
E0
E0
E0
70
70
70
38
38
3C
1C
0E
0E
07
ENDCHAR
STARTCHAR parenright
ENCODING 41
SWIDTH 333 0
DWIDTH 11 0
BBX 8 28 1 -4
BITMAP
E0
70
70
38
38
1C
1C
0E
0E
0E
07
07
07
07
07
07
07
07
0E
0E
0E
1C
1C
38
38
70
70
E0
ENDCHAR
STARTCHAR asterisk
ENCODING 42
SWIDTH 556 0
DWIDTH 18 0
BBX 13 12 2 11
BITMAP
0700
0700
0700
4710
FBF8
FFF8
0F80
0F80
1DC0
38E0
78E0
1040
ENDCHAR
STARTCHAR plus
ENCODING 43
SWIDTH 600 0
DWIDTH 19 0
BBX 17 17 1 0
BITMAP
01C000
01C000
01C000
01C000
01C000
01C000
01C000
FFFF80
FFFF80
FFFF80
01C000
01C000
01C000
01C000
01C000
01C000
01C000
ENDCHAR
STARTCHAR comma
ENCODING 44
SWIDTH 278 0
DWIDTH 9 0
BBX 6 8 1 -4
BITMAP
3C
38
78
70
70
70
E0
E0
ENDCHAR
STARTCHAR hyphen
ENCODING 45
SWIDTH 333 0
DWIDTH 11 0
BBX 8 2 1 8
BITMAP
FF
FF
ENDCHAR
STARTCHAR period
ENCODING 46
SWIDTH 278 0
DWIDTH 9 0
BBX 4 4 3 0
BITMAP
F0
F0
F0
F0
ENDCHAR
STARTCHAR slash
ENCODING 47
SWIDTH 278 0
DWIDTH 9 0
BBX 11 23 -1 0
BITMAP
00E0
01C0
01C0
01C0
0380
0380
0380
0700
0700
0700
0E00
0E00
1E00
1C00
1C00
3C00
3800
3800
7800
7000
7000
F000
E000
ENDCHAR
STARTCHAR zero
ENCODING 48
SWIDTH 556 0
DWIDTH 18 0
BBX 15 23 1 0
BITMAP
07C0
1FF0
3FF0
3838
703C
701C
701C
E01C
E00E
E00E
E00E
E00E
E00E
E00E
E00E
E01C
701C
701C
703C
3838
3FF0
1FF0
07C0
ENDCHAR
STARTCHAR one
ENCODING 49
SWIDTH 556 0
DWIDTH 18 0
BBX 8 23 4 0
BITMAP
07
0F
3F
7F
F7
67
47
07
07
07
07
07
07
07
07
07
07
07
07
07
07
07
07
ENDCHAR
STARTCHAR two
ENCODING 50
SWIDTH 556 0
DWIDTH 18 0
BBX 13 23 2 0
BITMAP
1F80
FFE0
FFF0
4070
0078
0038
0038
0038
0038
0070
00F0
00E0
01C0
03C0
0780
0F00
1E00
3C00
7800
F000
FFF8
FFF8
FFF8
ENDCHAR
STARTCHAR three
ENCODING 51
SWIDTH 556 0
DWIDTH 18 0
BBX 14 23 1 0
BITMAP
1FC0
7FF0
7FF8
4038
003C
001C
001C
003C
0038
01F0
1FE0
1FC0
01F0
0038
003C
001C
001C
001C
003C
8078
7FF8
7FF0
BF80
ENDCHAR
STARTCHAR four
ENCODING 52
SWIDTH 556 0
DWIDTH 18 0
BBX 16 23 1 0
BITMAP
00F8
00F8
01F8
01B8
03B8
0738
0738
0E38
0E38
1C38
3838
3838
7038
7038
E038
FFFF
FFFF
FFFF
0038
0038
0038
0038
0038
ENDCHAR
STARTCHAR five
ENCODING 53
SWIDTH 556 0
DWIDTH 18 0
BBX 13 23 3 0
BITMAP
FFF0
FFF0
FFF0
E000
E000
E000
E000
E000
FF80
FFC0
FFE0
80F0
0078
0038
0038
0038
0038
0038
0070
80F0
FFE0
FFC0
7F00
ENDCHAR
STARTCHAR six
ENCODING 54
SWIDTH 556 0
DWIDTH 18 0
BBX 14 23 2 0
BITMAP
03F8
0FF8
1FF8
3C08
7800
7000
7000
F000
E000
E7E0
EFF0
FFF8
F83C
F01C
F01C
E01C
E01C
701C
701C
7838
3FF8
1FF0
0FC0
ENDCHAR
STARTCHAR seven
ENCODING 55
SWIDTH 556 0
DWIDTH 18 0
BBX 14 23 2 0
BITMAP
FFFC
FFFC
FFFC
0038
0038
0078
0070
00F0
00E0
00E0
01E0
01C0
03C0
0380
0380
0780
0700
0F00
0E00
1E00
1E00
1C00
3C00
ENDCHAR
STARTCHAR eight
ENCODING 56
SWIDTH 556 0
DWIDTH 18 0
BBX 15 23 1 0
BITMAP
0FE0
1FF0
3FF8
783C
701C
701C
701C
701C
7C38
3EF0
0FE0
1FF0
3CF8
783C
F01E
E00E
E00E
E00E
F00E
781C
7FFC
3FF8
0FE0
ENDCHAR
STARTCHAR nine
ENCODING 57
SWIDTH 556 0
DWIDTH 18 0
BBX 14 23 2 0
BITMAP
0FC0
3FE0
7FF0
7078
E038
E038
E01C
E01C
E03C
E03C
F07C
7FFC
3FDC
0F9C
001C
003C
0038
0038
0070
80F0
7FE0
7FC0
7F00
ENDCHAR
STARTCHAR colon
ENCODING 58
SWIDTH 278 0
DWIDTH 9 0
BBX 4 17 3 0
BITMAP
F0
F0
F0
F0
00
00
00
00
00
00
00
00
00
F0
F0
F0
F0
ENDCHAR
STARTCHAR semicolon
ENCODING 59
SWIDTH 278 0
DWIDTH 9 0
BBX 6 21 1 -4
BITMAP
3C
3C
3C
3C
00
00
00
00
00
00
00
00
00
3C
38
78
70
70
70
E0
E0
ENDCHAR
STARTCHAR less
ENCODING 60
SWIDTH 600 0
DWIDTH 19 0
BBX 16 17 1 -1
BITMAP
0001
000F
003F
00FC
03F0
1FC0
7E00
F800
F000
FC00
3F80
07E0
01F8
007E
001F
0003
0001
ENDCHAR
STARTCHAR equal
ENCODING 61
SWIDTH 600 0
DWIDTH 19 0
BBX 17 10 1 3
BITMAP
FFFF80
FFFF80
FFFF80
000000
000000
000000
000000
FFFF80
FFFF80
FFFF80
ENDCHAR
STARTCHAR greater
ENCODING 62
SWIDTH 600 0
DWIDTH 19 0
BBX 16 17 2 -1
BITMAP
8000
F000
FC00
3F00
0FC0
03F8
007E
001F
000F
003F
01FC
07E0
1F80
7E00
F800
C000
8000
ENDCHAR
STARTCHAR question
ENCODING 63
SWIDTH 500 0
DWIDTH 16 0
BBX 12 23 2 0
BITMAP
3F00
FFC0
FFE0
C0F0
0070
0070
0070
0070
0070
00E0
01E0
03C0
0780
0700
0F00
0E00
0E00
0000
0000
0F00
0F00
0F00
0F00
ENDCHAR
STARTCHAR at
ENCODING 64
SWIDTH 800 0
DWIDTH 26 0
BBX 22 23 2 0
BITMAP
00FE00
03FFC0
0F83E0
1E0070
3C0038
383818
70FFDC
61FFCC
E3C78C
E7838C
E7038C
E7038C
E7030C
E70718
E70718
679F70
73FFE0
71F7C0
380038
1E0070
0FC3E0
03FFC0
00FE00
ENDCHAR
STARTCHAR A
ENCODING 65
SWIDTH 722 0
DWIDTH 23 0
BBX 22 23 0 0
BITMAP
003800
007C00
007C00
006C00
00EE00
00CE00
01C700
01C700
038300
038380
030380
0701C0
0701C0
0E00E0
0FFFE0
0FFFE0
1FFFF0
1C0070
380038
380038
700038
70001C
F0001C
ENDCHAR
STARTCHAR B
ENCODING 66
SWIDTH 611 0
DWIDTH 20 0
BBX 14 23 3 0
BITMAP
FFC0
FFF0
FFF8
E078
E03C
E01C
E01C
E01C
E038
E070
FFE0
FF80
FFF0
E078
E01C
E01C
E01C
E01C
E01C
E03C
FFF8
FFF0
FFC0
ENDCHAR
STARTCHAR C
ENCODING 67
SWIDTH 611 0
DWIDTH 20 0
BBX 17 23 2 0
BITMAP
00FF00
03FF80
0FFF80
1F0180
3C0000
780000
700000
700000
E00000
E00000
E00000
E00000
E00000
E00000
E00000
700000
700000
780000
3C0000
1F0080
0FFF80
07FF80
00FF00
ENDCHAR
STARTCHAR D
ENCODING 68
SWIDTH 722 0
DWIDTH 23 0
BBX 18 23 3 0
BITMAP
FFC000
FFF800
FFFC00
E03E00
E00F00
E00780
E00380
E003C0
E001C0
E001C0
E001C0
E001C0
E001C0
E001C0
E001C0
E003C0
E00380
E00780
E00F00
E01F00
FFFC00
FFF800
FFC000
ENDCHAR
STARTCHAR E
ENCODING 69
SWIDTH 556 0
DWIDTH 18 0
BBX 13 23 3 0
BITMAP
FFF8
FFF8
FFF8
E000
E000
E000
E000
E000
E000
E000
FFF0
FFF0
FFF0
E000
E000
E000
E000
E000
E000
E000
FFF8
FFF8
FFF8
ENDCHAR
STARTCHAR F
ENCODING 70
SWIDTH 500 0
DWIDTH 16 0
BBX 12 23 3 0
BITMAP
FFF0
FFF0
FFF0
E000
E000
E000
E000
E000
E000
E000
FFE0
FFE0
FFE0
E000
E000
E000
E000
E000
E000
E000
E000
E000
E000
ENDCHAR
STARTCHAR G
ENCODING 71
SWIDTH 722 0
DWIDTH 23 0
BBX 18 23 2 0
BITMAP
00FF00
07FFC0
0FFFC0
1F00C0
3C0000
780000
700000
E00000
E00000
E00000
E03FC0
E03FC0
E03FC0
E001C0
E001C0
E001C0
7001C0
7801C0
3C01C0
3F01C0
1FFFC0
07FFC0
01FF00
ENDCHAR
STARTCHAR H
ENCODING 72
SWIDTH 722 0
DWIDTH 23 0
BBX 17 23 3 0
BITMAP
E00380
E00380
E00380
E00380
E00380
E00380
E00380
E00380
E00380
E00380
FFFF80
FFFF80
FFFF80
E00380
E00380
E00380
E00380
E00380
E00380
E00380
E00380
E00380
E00380
ENDCHAR
STARTCHAR I
ENCODING 73
SWIDTH 278 0
DWIDTH 9 0
BBX 3 23 3 0
BITMAP
E0
E0
E0
E0
E0
E0
E0
E0
E0
E0
E0
E0
E0
E0
E0
E0
E0
E0
E0
E0
E0
E0
E0
ENDCHAR
STARTCHAR J
ENCODING 74
SWIDTH 389 0
DWIDTH 12 0
BBX 9 23 0 0
BITMAP
0380
0380
0380
0380
0380
0380
0380
0380
0380
0380
0380
0380
0380
0380
0380
0380
0380
0380
0380
0780
FF00
FE00
FC00
ENDCHAR
STARTCHAR K
ENCODING 75
SWIDTH 667 0
DWIDTH 21 0
BBX 18 23 3 0
BITMAP
E00780
E00E00
E01C00
E03800
E07000
E0E000
E1C000
E38000
E70000
EE0000
FC0000
FE0000
EF0000
E78000
E3C000
E3E000
E1F000
E0F800
E07C00
E03C00
E01E00
E00F00
E007C0
ENDCHAR
STARTCHAR L
ENCODING 76
SWIDTH 500 0
DWIDTH 16 0
BBX 13 23 3 0
BITMAP
E000
E000
E000
E000
E000
E000
E000
E000
E000
E000
E000
E000
E000
E000
E000
E000
E000
E000
E000
E000
FFF8
FFF8
FFF8
ENDCHAR
STARTCHAR M
ENCODING 77
SWIDTH 944 0
DWIDTH 30 0
BBX 25 23 3 0
BITMAP
FC001F80
FC001F80
FC001F80
FE003F80
EE003B80
EE003B80
EF007B80
E7007380
E780F380
E380E380
E380E380
E3C1E380
E1C1C380
E1C1C380
E0E38380
E0E38380
E0F38380
E0770380
E0770380
E03E0380
E03E0380
E03E0380
E01C0380
ENDCHAR
STARTCHAR N
ENCODING 78
SWIDTH 722 0
DWIDTH 23 0
BBX 17 23 3 0
BITMAP
F00380
F80380
F80380
FC0380
FE0380
EE0380
EF0380
E70380
E78380
E38380
E3C380
E1C380
E0E380
E0E380
E07380
E07380
E03B80
E03B80
E01F80
E01F80
E00F80
E00F80
E00780
ENDCHAR
STARTCHAR O
ENCODING 79
SWIDTH 778 0
DWIDTH 25 0
BBX 21 23 2 0
BITMAP
01FC00
07FF00
0FFFC0
1E03E0
3C01E0
7800F0
700070
700078
E00038
E00038
E00038
E00038
E00038
E00038
E00038
F00078
700070
7800F0
3C01E0
3E03E0
1FFFC0
07FF00
01FC00
ENDCHAR
STARTCHAR P
ENCODING 80
SWIDTH 556 0
DWIDTH 18 0
BBX 14 23 3 0
BITMAP
FF80
FFE0
FFF0
E078
E03C
E01C
E01C
E01C
E01C
E03C
E078
FFF0
FFE0
FF80
E000
E000
E000
E000
E000
E000
E000
E000
E000
ENDCHAR
STARTCHAR Q
ENCODING 81
SWIDTH 778 0
DWIDTH 25 0
BBX 21 27 2 -4
BITMAP
01FC00
07FF00
0FFFC0
1E03E0
3C01E0
7800F0
700070
700078
E00038
E00038
E00038
E00038
E00038
E00038
E00038
F00078
700070
7800F0
3C01E0
3E03E0
1FFFC0
07FF00
01FF00
000780
0003C0
0001E0
0000F0
ENDCHAR
STARTCHAR R
ENCODING 82
SWIDTH 611 0
DWIDTH 20 0
BBX 16 23 3 0
BITMAP
FFC0
FFF0
FFF8
E078
E03C
E01C
E01C
E01C
E038
E078
FFF0
FF80
FFE0
E0E0
E0F0
E070
E078
E038
E03C
E01C
E01E
E00E
E00F
ENDCHAR
STARTCHAR S
ENCODING 83
SWIDTH 500 0
DWIDTH 16 0
BBX 13 23 1 0
BITMAP
07E0
1FF0
3FF0
7810
7000
E000
F000
7000
7800
3E00
1F80
0FE0
03F0
00F0
0078
0038
0038
0038
0078
40F0
7FF0
7FE0
3F80
ENDCHAR
STARTCHAR T
ENCODING 84
SWIDTH 556 0
DWIDTH 18 0
BBX 17 23 0 0
BITMAP
FFFF80
FFFF80
FFFF80
01C000
01C000
01C000
01C000
01C000
01C000
01C000
01C000
01C000
01C000
01C000
01C000
01C000
01C000
01C000
01C000
01C000
01C000
01C000
01C000
ENDCHAR
STARTCHAR U
ENCODING 85
SWIDTH 722 0
DWIDTH 23 0
BBX 17 23 3 0
BITMAP
E00380
E00380
E00380
E00380
E00380
E00380
E00380
E00380
E00380
E00380
E00380
E00380
E00380
E00380
E00380
E00380
E00380
700700
700700
7C1F00
3FFE00
1FFC00
07F000
ENDCHAR
STARTCHAR V
ENCODING 86
SWIDTH 667 0
DWIDTH 21 0
BBX 21 23 1 0
BITMAP
E00078
E00070
F00070
7000E0
7000E0
3801E0
3801C0
3801C0
1C0380
1C0380
1C0380
0E0700
0E0700
070700
070E00
070E00
039C00
039C00
039C00
01F800
01F800
01F800
00F000
ENDCHAR
STARTCHAR W
ENCODING 87
SWIDTH 1000 0
DWIDTH 32 0
BBX 32 23 0 0
BITMAP
F003E007
7003E00F
7807E00E
7807E00E
3807700E
3807701E
3C0E701C
1C0E701C
1C0E383C
1C0E3838
1E1C3838
0E1C3838
0E1C1C70
0E1C1C70
07381C70
07381C70
07380EE0
07B80EE0
03B00EE0
03F00FC0
03F007C0
01F007C0
01E00780
ENDCHAR
STARTCHAR X
ENCODING 88
SWIDTH 667 0
DWIDTH 21 0
BBX 21 23 0 0
BITMAP
7800F0
3801E0
3C01C0
1E0380
0E0780
0F0700
078E00
039E00
03DC00
01F800
00F800
00F800
01F800
03FC00
039E00
079E00
0F0F00
0E0780
1E03C0
3C03C0
7801E0
7800F0
F000F8
ENDCHAR
STARTCHAR Y
ENCODING 89
SWIDTH 667 0
DWIDTH 21 0
BBX 21 23 0 0
BITMAP
F00078
7800F0
3C01E0
1C01C0
1E03C0
0F0380
070700
078F00
038E00
03DE00
01FC00
00F800
00F800
007000
007000
007000
007000
007000
007000
007000
007000
007000
007000
ENDCHAR
STARTCHAR Z
ENCODING 90
SWIDTH 556 0
DWIDTH 18 0
BBX 15 23 1 0
BITMAP
FFFE
FFFE
FFFE
001E
003C
003C
0078
00F0
00F0
01E0
03C0
03C0
0780
0F00
0F00
1E00
3C00
3C00
7800
F000
FFFE
FFFE
FFFE
ENDCHAR
STARTCHAR bracketleft
ENCODING 91
SWIDTH 333 0
DWIDTH 11 0
BBX 6 28 3 -4
BITMAP
FC
FC
E0
E0
E0
E0
E0
E0
E0
E0
E0
E0
E0
E0
E0
E0
E0
E0
E0
E0
E0
E0
E0
E0
E0
E0
FC
FC
ENDCHAR
STARTCHAR backslash
ENCODING 92
SWIDTH 278 0
DWIDTH 9 0
BBX 11 23 -1 0
BITMAP
E000
7000
7000
7000
3800
3800
3800
1C00
1C00
1C00
0E00
0E00
0E00
0700
0700
0700
0380
0380
03C0
01C0
01C0
01E0
00E0
ENDCHAR
STARTCHAR bracketright
ENCODING 93
SWIDTH 333 0
DWIDTH 11 0
BBX 6 28 2 -4
BITMAP
FC
FC
1C
1C
1C
1C
1C
1C
1C
1C
1C
1C
1C
1C
1C
1C
1C
1C
1C
1C
1C
1C
1C
1C
1C
1C
FC
FC
ENDCHAR
STARTCHAR asciicircum
ENCODING 94
SWIDTH 600 0
DWIDTH 19 0
BBX 15 13 2 10
BITMAP
0380
0780
07C0
0EC0
0EE0
1C60
1C70
3870
3838
7038
701C
E01C
E00E
ENDCHAR
STARTCHAR underscore
ENCODING 95
SWIDTH 500 0
DWIDTH 16 0
BBX 16 2 0 -4
BITMAP
FFFF
FFFF
ENDCHAR
STARTCHAR grave
ENCODING 96
SWIDTH 278 0
DWIDTH 9 0
BBX 6 5 0 18
BITMAP
E0
70
30
18
0C
ENDCHAR
STARTCHAR a
ENCODING 97
SWIDTH 556 0
DWIDTH 18 0
BBX 14 17 1 0
BITMAP
0FE0
3FF0
3FF8
2038
001C
001C
001C
0FFC
3FFC
7C1C
F01C
E01C
E01C
F03C
7DFC
7FDC
1F9C
ENDCHAR
STARTCHAR b
ENCODING 98
SWIDTH 611 0
DWIDTH 20 0
BBX 15 24 3 0
BITMAP
E000
E000
E000
E000
E000
E000
E000
E3E0
EFF8
FEFC
F81C
F01E
F00E
E00E
E00E
E00E
E00E
E00E
F00E
F01E
F83C
FEFC
EFF8
E3E0
ENDCHAR
STARTCHAR c
ENCODING 99
SWIDTH 444 0
DWIDTH 14 0
BBX 12 17 1 0
BITMAP
07E0
1FF0
3F70
7800
7000
F000
E000
E000
E000
E000
E000
F000
7000
7800
3F70
1FF0
07F0
ENDCHAR
STARTCHAR d
ENCODING 100
SWIDTH 611 0
DWIDTH 20 0
BBX 16 24 1 0
BITMAP
0007
0007
0007
0007
0007
0007
0007
07C7
1FF7
3E7F
381F
700F
700F
7007
F007
E007
7007
7007
700F
780F
381F
3F7F
1FF7
07C7
ENDCHAR
STARTCHAR e
ENCODING 101
SWIDTH 556 0
DWIDTH 18 0
BBX 15 17 1 0
BITMAP
07E0
1FF0
3EF8
783C
701C
E01C
E00C
FFFE
FFFE
E000
E000
F000
7000
7804
3F7C
1FFC
07F0
ENDCHAR
STARTCHAR f
ENCODING 102
SWIDTH 389 0
DWIDTH 12 0
BBX 11 24 1 0
BITMAP
01E0
07E0
0FE0
0E00
0E00
0E00
0E00
FFE0
FFE0
0E00
0E00
0E00
0E00
0E00
0E00
0E00
0E00
0E00
0E00
0E00
0E00
0E00
0E00
0E00
ENDCHAR
STARTCHAR g
ENCODING 103
SWIDTH 611 0
DWIDTH 20 0
BBX 16 24 1 -7
BITMAP
07E7
0FF7
1F7F
381F
780F
700F
7007
7007
E007
F007
7007
700F
780F
381F
3FFF
1FF7
07C7
0007
0007
000E
201E
3EFC
3FF8
0FE0
ENDCHAR
STARTCHAR h
ENCODING 104
SWIDTH 611 0
DWIDTH 20 0
BBX 14 24 3 0
BITMAP
E000
E000
E000
E000
E000
E000
E000
E3E0
EFF0
FEF8
F838
F03C
F01C
E01C
E01C
E01C
E01C
E01C
E01C
E01C
E01C
E01C
E01C
E01C
ENDCHAR
STARTCHAR i
ENCODING 105
SWIDTH 278 0
DWIDTH 9 0
BBX 3 24 3 0
BITMAP
E0
E0
E0
00
00
00
00
E0
E0
E0
E0
E0
E0
E0
E0
E0
E0
E0
E0
E0
E0
E0
E0
E0
ENDCHAR
STARTCHAR j
ENCODING 106
SWIDTH 278 0
DWIDTH 9 0
BBX 6 31 0 -7
BITMAP
1C
1C
1C
00
00
00
00
1C
1C
1C
1C
1C
1C
1C
1C
1C
1C
1C
1C
1C
1C
1C
1C
1C
1C
1C
1C
3C
F8
F8
F0
ENDCHAR
STARTCHAR k
ENCODING 107
SWIDTH 556 0
DWIDTH 18 0
BBX 15 24 3 0
BITMAP
E000
E000
E000
E000
E000
E000
E000
E07C
E0F0
E1E0
E3C0
E780
EF00
FE00
FC00
FE00
EF00
E780
E3C0
E1E0
E1E0
E0F0
E078
E03E
ENDCHAR
STARTCHAR l
ENCODING 108
SWIDTH 278 0
DWIDTH 9 0
BBX 3 24 3 0
BITMAP
E0
E0
E0
E0
E0
E0
E0
E0
E0
E0
E0
E0
E0
E0
E0
E0
E0
E0
E0
E0
E0
E0
E0
E0
ENDCHAR
STARTCHAR m
ENCODING 109
SWIDTH 889 0
DWIDTH 28 0
BBX 23 17 3 0
BITMAP
E7C1F0
EFE3F8
FFF7FC
F87E1E
F03C0E
E0380E
E0380E
E0380E
E0380E
E0380E
E0380E
E0380E
E0380E
E0380E
E0380E
E0380E
E0380E
ENDCHAR
STARTCHAR n
ENCODING 110
SWIDTH 611 0
DWIDTH 20 0
BBX 14 17 3 0
BITMAP
E3E0
EFF0
FEF8
F838
F03C
F01C
E01C
E01C
E01C
E01C
E01C
E01C
E01C
E01C
E01C
E01C
E01C
ENDCHAR
STARTCHAR o
ENCODING 111
SWIDTH 611 0
DWIDTH 20 0
BBX 16 17 1 0
BITMAP
07E0
1FF8
3F7C
781E
700F
F007
E007
E007
E007
E007
E007
F007
700E
781E
3F7C
1FF8
07E0
ENDCHAR
STARTCHAR p
ENCODING 112
SWIDTH 611 0
DWIDTH 20 0
BBX 15 24 3 -7
BITMAP
E3E0
EFF8
FEFC
F81C
F01E
F00E
E00E
E00E
E00E
E00E
E00E
F00E
F01E
F83C
FEFC
EFF8
E7E0
E000
E000
E000
E000
E000
E000
E000
ENDCHAR
STARTCHAR q
ENCODING 113
SWIDTH 611 0
DWIDTH 20 0
BBX 16 24 1 -7
BITMAP
07C7
1FF7
3E7F
381F
700F
700F
7007
F007
E007
7007
7007
700F
780F
381F
3F7F
1FF7
07C7
0007
0007
0007
0007
0007
0007
0007
ENDCHAR
STARTCHAR r
ENCODING 114
SWIDTH 389 0
DWIDTH 12 0
BBX 9 17 3 0
BITMAP
E780
EF80
FF80
F800
F000
F000
E000
E000
E000
E000
E000
E000
E000
E000
E000
E000
E000
ENDCHAR
STARTCHAR s
ENCODING 115
SWIDTH 389 0
DWIDTH 12 0
BBX 10 17 1 0
BITMAP
1F80
7F80
7F80
E000
E000
E000
F000
7E00
3F00
0F80
03C0
01C0
01C0
81C0
E780
FF80
7E00
ENDCHAR
STARTCHAR t
ENCODING 116
SWIDTH 389 0
DWIDTH 12 0
BBX 12 21 0 0
BITMAP
0600
0E00
0E00
0E00
FFE0
FFE0
0E00
0E00
0E00
0E00
0E00
0E00
0E00
0E00
0E00
0E00
0E00
0F00
0FB0
07F0
03F0
ENDCHAR
STARTCHAR u
ENCODING 117
SWIDTH 611 0
DWIDTH 20 0
BBX 14 17 3 0
BITMAP
E01C
E01C
E01C
E01C
E01C
E01C
E01C
E01C
E01C
E01C
E01C
E03C
E03C
707C
7DFC
3FDC
1F1C
ENDCHAR
STARTCHAR v
ENCODING 118
SWIDTH 500 0
DWIDTH 16 0
BBX 15 17 0 0
BITMAP
E00E
700E
700E
701C
381C
381C
3838
1C38
1C38
1C70
0E70
0E60
0EE0
07E0
07C0
07C0
03C0
ENDCHAR
STARTCHAR w
ENCODING 119
SWIDTH 833 0
DWIDTH 27 0
BBX 26 17 1 0
BITMAP
E01E03C0
E01E0380
E03E0380
70370380
70370700
70770700
38730700
38638600
38E38E00
18E18E00
1CC1CC00
1CC1DC00
0DC0DC00
0F80D800
0F80F800
0780F800
07807800
ENDCHAR
STARTCHAR x
ENCODING 120
SWIDTH 500 0
DWIDTH 16 0
BBX 15 17 0 0
BITMAP
781E
381C
3C38
1C38
0E70
0FE0
07E0
03C0
03C0
07E0
0FE0
0EF0
1C78
3C38
383C
781E
F01E
ENDCHAR
STARTCHAR y
ENCODING 121
SWIDTH 500 0
DWIDTH 16 0
BBX 15 24 0 -7
BITMAP
E00E
E00E
701C
701C
7018
3838
3838
1830
1C70
1C70
0C60
0EE0
0EE0
06C0
07C0
07C0
0380
0380
0300
0700
0700
5E00
7C00
7800
ENDCHAR
STARTCHAR z
ENCODING 122
SWIDTH 500 0
DWIDTH 16 0
BBX 13 17 1 0
BITMAP
FFF0
FFF0
0070
0070
00E0
01C0
0380
0780
0700
0E00
1C00
3800
7800
7000
E000
FFF8
FFF8
ENDCHAR
STARTCHAR braceleft
ENCODING 123
SWIDTH 333 0
DWIDTH 11 0
BBX 9 28 1 -4
BITMAP
0780
0F80
1E00
1C00
1C00
1C00
1C00
1C00
1C00
1C00
1C00
1C00
3800
F000
F000
7800
3C00
1C00
1C00
1C00
1C00
1C00
1C00
1C00
1C00
1E00
0F80
0780
ENDCHAR
STARTCHAR bar
ENCODING 124
SWIDTH 222 0
DWIDTH 7 0
BBX 3 32 2 -8
BITMAP
E0
E0
E0
E0
E0
E0
E0
E0
E0
E0
E0
E0
E0
E0
E0
E0
E0
E0
E0
E0
E0
E0
E0
E0
E0
E0
E0
E0
E0
E0
E0
E0
ENDCHAR
STARTCHAR braceright
ENCODING 125
SWIDTH 333 0
DWIDTH 11 0
BBX 9 28 1 -4
BITMAP
F000
F800
3C00
1C00
1C00
1C00
1C00
1C00
1C00
1C00
1C00
1C00
0E00
0F80
0780
0F00
1E00
1C00
1C00
1C00
1C00
1C00
1C00
1C00
1C00
3C00
F800
F000
ENDCHAR
STARTCHAR asciitilde
ENCODING 126
SWIDTH 600 0
DWIDTH 19 0
BBX 15 5 2 6
BITMAP
3C04
7F86
FFFE
C1FC
C078
ENDCHAR
STARTCHAR Zcaron
ENCODING 142
SWIDTH 556 0
DWIDTH 18 0
BBX 15 29 1 0
BITMAP
1C70
0C60
06E0
07C0
0380
0000
FFFE
FFFE
FFFE
001E
003C
003C
0078
00F0
00F0
01E0
03C0
03C0
0780
0F00
0F00
1E00
3C00
3C00
7800
F000
FFFE
FFFE
FFFE
ENDCHAR
STARTCHAR zcaron
ENCODING 158
SWIDTH 500 0
DWIDTH 16 0
BBX 13 24 1 0
BITMAP
1C70
0C60
06E0
07C0
0380
0000
0000
FFF0
FFF0
0070
0070
00E0
01C0
0380
0780
0700
0E00
1C00
3800
7800
7000
E000
FFF8
FFF8
ENDCHAR
STARTCHAR nonbreakingspace
ENCODING 160
SWIDTH 278 0
DWIDTH 9 0
BBX 1 1 0 0
BITMAP
00
ENDCHAR
STARTCHAR exclamdown
ENCODING 161
SWIDTH 389 0
DWIDTH 12 0
BBX 4 23 4 -6
BITMAP
F0
F0
F0
F0
00
00
00
E0
E0
E0
E0
E0
E0
E0
E0
E0
E0
E0
E0
E0
F0
F0
F0
ENDCHAR
STARTCHAR cent
ENCODING 162
SWIDTH 556 0
DWIDTH 18 0
BBX 12 25 3 -4
BITMAP
0030
0060
0060
0060
07F0
1FF0
3FF0
78C0
7180
F180
E180
E100
E300
E300
E300
F600
7600
7E00
3F70
0FF0
0FF0
0C00
1800
1800
1800
ENDCHAR
STARTCHAR sterling
ENCODING 163
SWIDTH 556 0
DWIDTH 18 0
BBX 14 23 2 0
BITMAP
00FC
03FC
07FC
0F04
0E00
1C00
1C00
1C00
1C00
1C00
FFE0
FFE0
1C00
1C00
1C00
1C00
1C00
1C00
1C00
1C00
FFFC
FFFC
FFFC
ENDCHAR
STARTCHAR currency
ENCODING 164
SWIDTH 556 0
DWIDTH 18 0
BBX 16 16 1 3
BITMAP
47E2
FFFF
7FFE
781E
700E
E007
E007
E007
E007
E007
E007
700E
781E
7FFE
FFFF
47E2
ENDCHAR
STARTCHAR yen
ENCODING 165
SWIDTH 556 0
DWIDTH 18 0
BBX 17 23 0 0
BITMAP
F00780
700700
780F00
380E00
3C1E00
1C1C00
1E3C00
0E3800
0F7800
077000
07F000
3FFE00
3FFE00
01C000
01C000
01C000
3FFE00
3FFE00
01C000
01C000
01C000
01C000
01C000
ENDCHAR
STARTCHAR brokenbar
ENCODING 166
SWIDTH 222 0
DWIDTH 7 0
BBX 3 28 2 -6
BITMAP
E0
E0
E0
E0
E0
E0
E0
E0
E0
E0
E0
00
00
00
00
00
00
E0
E0
E0
E0
E0
E0
E0
E0
E0
E0
E0
ENDCHAR
STARTCHAR section
ENCODING 167
SWIDTH 556 0
DWIDTH 18 0
BBX 13 27 3 -4
BITMAP
0FE0
3FE0
7FE0
F020
E000
E000
F000
7800
7F00
3FC0
67E0
E0F0
E078
E038
F038
FC70
7FF0
1FC0
07E0
00F0
0070
0070
0070
80F0
FFE0
FFC0
7F00
ENDCHAR
STARTCHAR dieresis
ENCODING 168
SWIDTH 278 0
DWIDTH 9 0
BBX 8 3 0 19
BITMAP
E7
E7
E7
ENDCHAR
STARTCHAR copyright
ENCODING 169
SWIDTH 800 0
DWIDTH 26 0
BBX 23 23 1 0
BITMAP
00FE00
03FF80
0F83E0
1E00F0
3C0078
38FE38
71FF1C
73839C
E3818E
E7000E
E7000E
E7000E
E7000E
E7018E
E3818E
73839C
71FF1C
38FE38
3C0078
1E00F0
0F83E0
03FF80
00FE00
ENDCHAR
STARTCHAR ordfeminine
ENCODING 170
SWIDTH 361 0
DWIDTH 12 0
BBX 10 10 1 13
BITMAP
3F00
7F80
4380
01C0
3FC0
FFC0
E1C0
C1C0
FFC0
7DC0
ENDCHAR
STARTCHAR guillemotleft
ENCODING 171
SWIDTH 556 0
DWIDTH 18 0
BBX 13 13 2 2
BITMAP
0E38
0C30
1C70
38E0
71C0
71C0
E380
71C0
71C0
38E0
1C70
0C30
0E38
ENDCHAR
STARTCHAR logicalnot
ENCODING 172
SWIDTH 600 0
DWIDTH 19 0
BBX 16 10 2 3
BITMAP
FFFF
FFFF
FFFF
0007
0007
0007
0007
0007
0007
0007
ENDCHAR
STARTCHAR hyphen.dup1
ENCODING 173
SWIDTH 333 0
DWIDTH 11 0
BBX 8 2 1 8
BITMAP
FF
FF
ENDCHAR
STARTCHAR registered
ENCODING 174
SWIDTH 800 0
DWIDTH 26 0
BBX 23 23 1 0
BITMAP
00FE00
03FF80
0F83E0
1E00F0
3C0078
39FE38
71FF1C
71C39C
E1C38E
E1C38E
E1FF0E
E1FF0E
E1DC0E
E1CC0E
E1CE0E
71C61C
71C31C
39C3B8
3C0078
1E00F0
0F83E0
03FF80
00FE00
ENDCHAR
STARTCHAR macron
ENCODING 175
SWIDTH 278 0
DWIDTH 9 0
BBX 9 2 0 20
BITMAP
FF80
FF80
ENDCHAR
STARTCHAR degree
ENCODING 176
SWIDTH 400 0
DWIDTH 13 0
BBX 9 9 2 14
BITMAP
3E00
7F00
E380
C180
C180
C180
E380
7F00
3E00
ENDCHAR
STARTCHAR plusminus
ENCODING 177
SWIDTH 600 0
DWIDTH 19 0
BBX 17 16 1 0
BITMAP
01C000
01C000
01C000
01C000
01C000
FFFF80
FFFF80
FFFF80
01C000
01C000
01C000
01C000
01C000
FFFF80
FFFF80
FFFF80
ENDCHAR
STARTCHAR twosuperior
ENCODING 178
SWIDTH 361 0
DWIDTH 12 0
BBX 10 14 1 9
BITMAP
3F00
7F80
63C0
01C0
01C0
01C0
0380
0700
0E00
1C00
3800
7000
FFC0
FFC0
ENDCHAR
STARTCHAR threesuperior
ENCODING 179
SWIDTH 361 0
DWIDTH 12 0
BBX 10 14 1 9
BITMAP
7F00
7F80
43C0
01C0
01C0
0380
3F00
3F00
0780
01C0
01C0
43C0
FF80
FF00
ENDCHAR
STARTCHAR acute
ENCODING 180
SWIDTH 278 0
DWIDTH 9 0
BBX 6 5 2 18
BITMAP
1C
38
70
60
C0
ENDCHAR
STARTCHAR mu
ENCODING 181
SWIDTH 611 0
DWIDTH 20 0
BBX 14 24 3 -7
BITMAP
E01C
E01C
E01C
E01C
E01C
E01C
E01C
E01C
E01C
E01C
E01C
E03C
E03C
F07C
FDFC
FFDC
FF1C
E000
E000
E000
E000
E000
E000
E000
ENDCHAR
STARTCHAR paragraph
ENCODING 182
SWIDTH 600 0
DWIDTH 19 0
BBX 17 27 1 -4
BITMAP
0FFF80
3FFF80
7FC380
7FC380
FFC380
FFC380
FFC380
FFC380
7FC380
7FC380
3FC380
1FC380
01C380
01C380
01C380
01C380
01C380
01C380
01C380
01C380
01C380
01C380
01C380
01C380
01C380
01C380
01C380
ENDCHAR
STARTCHAR periodcentered
ENCODING 183
SWIDTH 278 0
DWIDTH 9 0
BBX 4 4 3 8
BITMAP
60
F0
F0
60
ENDCHAR
STARTCHAR cedilla
ENCODING 184
SWIDTH 278 0
DWIDTH 9 0
BBX 6 7 4 -7
BITMAP
30
20
7C
1C
0C
0C
F8
ENDCHAR
STARTCHAR onesuperior
ENCODING 185
SWIDTH 361 0
DWIDTH 12 0
BBX 6 14 2 9
BITMAP
1C
3C
FC
DC
1C
1C
1C
1C
1C
1C
1C
1C
1C
1C
ENDCHAR
STARTCHAR ordmasculine
ENCODING 186
SWIDTH 397 0
DWIDTH 13 0
BBX 11 10 1 13
BITMAP
1F00
7FC0
71C0
E0E0
E0E0
E0E0
E0E0
71C0
7FC0
1F00
ENDCHAR
STARTCHAR guillemotright
ENCODING 187
SWIDTH 556 0
DWIDTH 18 0
BBX 13 13 3 2
BITMAP
E380
6180
71C0
38E0
1C70
1C70
0E38
1C70
1C70
38E0
71C0
6180
E380
ENDCHAR
STARTCHAR onequarter
ENCODING 188
SWIDTH 834 0
DWIDTH 27 0
BBX 25 24 1 -1
BITMAP
1C003000
7C006000
FC00E000
DC00C000
1C01C000
1C018000
1C030000
1C030000
1C060000
1C0E1E00
1C0C3E00
1C1C7E00
1C186E00
1C30EE00
0070CE00
00618E00
00E38E00
00C30E00
0187FF80
0187FF80
03000E00
07000E00
06000E00
0E000000
ENDCHAR
STARTCHAR onehalf
ENCODING 189
SWIDTH 834 0
DWIDTH 27 0
BBX 25 24 1 -1
BITMAP
1C006000
7C00C000
FC01C000
DC018000
1C038000
1C030000
1C060000
1C060000
1C0C0000
1C1C7E00
1C18FF00
1C38C780
1C300380
1C600380
00E00380
00C00700
01C00E00
01801C00
03003800
03007000
0600E000
0E01FF80
0C01FF80
1C000000
ENDCHAR
STARTCHAR threequarters
ENCODING 190
SWIDTH 834 0
DWIDTH 27 0
BBX 25 24 1 -1
BITMAP
7F001800
7F803000
43C07000
01C06000
01C0E000
0380C000
3F018000
3F018000
07830000
01C71E00
01C63E00
43CE7E00
FF8C6E00
FF18EE00
0038CE00
00318E00
00738E00
00630E00
00C7FF80
00C7FF80
01800E00
03800E00
03000E00
07000000
ENDCHAR
STARTCHAR questiondown
ENCODING 191
SWIDTH 500 0
DWIDTH 16 0
BBX 12 23 1 -6
BITMAP
0780
0780
0780
0780
0000
0000
0700
0700
0700
0F00
0E00
1C00
3C00
7800
7000
F000
E000
E000
F000
7810
7FF0
3FF0
0FE0
ENDCHAR
STARTCHAR Agrave
ENCODING 192
SWIDTH 722 0
DWIDTH 23 0
BBX 22 29 0 0
BITMAP
01C000
00E000
006000
003000
001800
000000
003800
007C00
007C00
006C00
00EE00
00CE00
01C700
01C700
038300
038380
030380
0701C0
0701C0
0E00E0
0FFFE0
0FFFE0
1FFFF0
1C0070
380038
380038
700038
70001C
F0001C
ENDCHAR
STARTCHAR Aacute
ENCODING 193
SWIDTH 722 0
DWIDTH 23 0
BBX 22 29 0 0
BITMAP
000E00
001C00
003800
003000
006000
000000
003800
007C00
007C00
006C00
00EE00
00CE00
01C700
01C700
038300
038380
030380
0701C0
0701C0
0E00E0
0FFFE0
0FFFE0
1FFFF0
1C0070
380038
380038
700038
70001C
F0001C
ENDCHAR
STARTCHAR Acircumflex
ENCODING 194
SWIDTH 722 0
DWIDTH 23 0
BBX 22 29 0 0
BITMAP
003800
007C00
00EC00
00C600
01C700
000000
003800
007C00
007C00
006C00
00EE00
00CE00
01C700
01C700
038300
038380
030380
0701C0
0701C0
0E00E0
0FFFE0
0FFFE0
1FFFF0
1C0070
380038
380038
700038
70001C
F0001C
ENDCHAR
STARTCHAR Atilde
ENCODING 195
SWIDTH 722 0
DWIDTH 23 0
BBX 22 27 0 0
BITMAP
01F080
03FF80
021F00
000000
003800
007C00
007C00
006C00
00EE00
00CE00
01C700
01C700
038300
038380
030380
0701C0
0701C0
0E00E0
0FFFE0
0FFFE0
1FFFF0
1C0070
380038
380038
700038
70001C
F0001C
ENDCHAR
STARTCHAR Adieresis
ENCODING 196
SWIDTH 722 0
DWIDTH 23 0
BBX 22 27 0 0
BITMAP
01CE00
01CE00
01CE00
000000
003800
007C00
007C00
006C00
00EE00
00CE00
01C700
01C700
038300
038380
030380
0701C0
0701C0
0E00E0
0FFFE0
0FFFE0
1FFFF0
1C0070
380038
380038
700038
70001C
F0001C
ENDCHAR
STARTCHAR Aring
ENCODING 197
SWIDTH 722 0
DWIDTH 23 0
BBX 22 30 0 0
BITMAP
003800
006C00
00C600
008200
00C600
006C00
003800
003800
007C00
007C00
006C00
00EE00
00CE00
01C700
01C700
038300
038380
030380
0701C0
0701C0
0E00E0
0FFFE0
0FFFE0
1FFFF0
1C0070
380038
380038
700038
70001C
F0001C
ENDCHAR
STARTCHAR AE
ENCODING 198
SWIDTH 944 0
DWIDTH 30 0
BBX 28 23 0 0
BITMAP
0007FFF0
0007FFF0
000FFFF0
000EE000
001EE000
003CE000
0038E000
0078E000
0070E000
00F0E000
00E0FFE0
01C0FFE0
03C0FFE0
0380E000
07FFE000
07FFF000
0FFFF000
1E007000
1C007000
3C007000
38007FF0
78007FF0
F0007FF0
ENDCHAR
STARTCHAR Ccedilla
ENCODING 199
SWIDTH 611 0
DWIDTH 20 0
BBX 17 30 2 -7
BITMAP
00FF00
03FF80
0FFF80
1F0180
3C0000
780000
700000
700000
E00000
E00000
E00000
E00000
E00000
E00000
E00000
700000
700000
780000
3C0000
1F0080
0FFF80
07FF80
00FF00
006000
00C000
00F800
001800
001C00
013800
01F000
ENDCHAR
STARTCHAR Egrave
ENCODING 200
SWIDTH 556 0
DWIDTH 18 0
BBX 13 29 3 0
BITMAP
7000
3800
1800
0C00
0600
0000
FFF8
FFF8
FFF8
E000
E000
E000
E000
E000
E000
E000
FFF0
FFF0
FFF0
E000
E000
E000
E000
E000
E000
E000
FFF8
FFF8
FFF8
ENDCHAR
STARTCHAR Eacute
ENCODING 201
SWIDTH 556 0
DWIDTH 18 0
BBX 13 29 3 0
BITMAP
0380
0700
0E00
0C00
1800
0000
FFF8
FFF8
FFF8
E000
E000
E000
E000
E000
E000
E000
FFF0
FFF0
FFF0
E000
E000
E000
E000
E000
E000
E000
FFF8
FFF8
FFF8
ENDCHAR
STARTCHAR Ecircumflex
ENCODING 202
SWIDTH 556 0
DWIDTH 18 0
BBX 13 29 3 0
BITMAP
0E00
1F00
3B00
3180
71C0
0000
FFF8
FFF8
FFF8
E000
E000
E000
E000
E000
E000
E000
FFF0
FFF0
FFF0
E000
E000
E000
E000
E000
E000
E000
FFF8
FFF8
FFF8
ENDCHAR
STARTCHAR Edieresis
ENCODING 203
SWIDTH 556 0
DWIDTH 18 0
BBX 13 27 3 0
BITMAP
7380
7380
7380
0000
FFF8
FFF8
FFF8
E000
E000
E000
E000
E000
E000
E000
FFF0
FFF0
FFF0
E000
E000
E000
E000
E000
E000
E000
FFF8
FFF8
FFF8
ENDCHAR
STARTCHAR Igrave
ENCODING 204
SWIDTH 278 0
DWIDTH 9 0
BBX 6 29 0 0
BITMAP
E0
70
30
18
0C
00
1C
1C
1C
1C
1C
1C
1C
1C
1C
1C
1C
1C
1C
1C
1C
1C
1C
1C
1C
1C
1C
1C
1C
ENDCHAR
STARTCHAR Iacute
ENCODING 205
SWIDTH 278 0
DWIDTH 9 0
BBX 6 29 2 0
BITMAP
1C
38
70
60
C0
00
70
70
70
70
70
70
70
70
70
70
70
70
70
70
70
70
70
70
70
70
70
70
70
ENDCHAR
STARTCHAR Icircumflex
ENCODING 206
SWIDTH 278 0
DWIDTH 9 0
BBX 9 29 0 0
BITMAP
1C00
3E00
7600
6300
E380
0000
1C00
1C00
1C00
1C00
1C00
1C00
1C00
1C00
1C00
1C00
1C00
1C00
1C00
1C00
1C00
1C00
1C00
1C00
1C00
1C00
1C00
1C00
1C00
ENDCHAR
STARTCHAR Idieresis
ENCODING 207
SWIDTH 278 0
DWIDTH 9 0
BBX 8 27 0 0
BITMAP
E7
E7
E7
00
1C
1C
1C
1C
1C
1C
1C
1C
1C
1C
1C
1C
1C
1C
1C
1C
1C
1C
1C
1C
1C
1C
1C
ENDCHAR
STARTCHAR Eth
ENCODING 208
SWIDTH 722 0
DWIDTH 23 0
BBX 20 23 1 0
BITMAP
3FF000
3FFE00
3FFF00
380F80
3803C0
3801E0
3800E0
3800F0
380070
380070
FFE070
FFE070
380070
380070
380070
3800F0
3800E0
3801E0
3803C0
3807C0
3FFF00
3FFE00
3FF000
ENDCHAR
STARTCHAR Ntilde
ENCODING 209
SWIDTH 722 0
DWIDTH 23 0
BBX 17 28 3 0
BITMAP
0F8400
1FFC00
10F800
000000
000000
F00380
F80380
F80380
FC0380
FE0380
EE0380
EF0380
E70380
E78380
E38380
E3C380
E1C380
E0E380
E0E380
E07380
E07380
E03B80
E03B80
E01F80
E01F80
E00F80
E00F80
E00780
ENDCHAR
STARTCHAR Ograve
ENCODING 210
SWIDTH 778 0
DWIDTH 25 0
BBX 21 29 2 0
BITMAP
038000
01C000
00C000
006000
003000
000000
01FC00
07FF00
0FFFC0
1E03E0
3C01E0
7800F0
700070
700078
E00038
E00038
E00038
E00038
E00038
E00038
E00038
F00078
700070
7800F0
3C01E0
3E03E0
1FFFC0
07FF00
01FC00
ENDCHAR
STARTCHAR Oacute
ENCODING 211
SWIDTH 778 0
DWIDTH 25 0
BBX 21 29 2 0
BITMAP
001C00
003800
007000
006000
00C000
000000
01FC00
07FF00
0FFFC0
1E03E0
3C01E0
7800F0
700070
700078
E00038
E00038
E00038
E00038
E00038
E00038
E00038
F00078
700070
7800F0
3C01E0
3E03E0
1FFFC0
07FF00
01FC00
ENDCHAR
STARTCHAR Ocircumflex
ENCODING 212
SWIDTH 778 0
DWIDTH 25 0
BBX 21 29 2 0
BITMAP
007000
00F800
01D800
018C00
038E00
000000
01FC00
07FF00
0FFFC0
1E03E0
3C01E0
7800F0
700070
700078
E00038
E00038
E00038
E00038
E00038
E00038
E00038
F00078
700070
7800F0
3C01E0
3E03E0
1FFFC0
07FF00
01FC00
ENDCHAR
STARTCHAR Otilde
ENCODING 213
SWIDTH 778 0
DWIDTH 25 0
BBX 21 28 2 0
BITMAP
03E100
07FF00
043E00
000000
000000
01FC00
07FF00
0FFFC0
1E03E0
3C01E0
7800F0
700070
700078
E00038
E00038
E00038
E00038
E00038
E00038
E00038
F00078
700070
7800F0
3C01E0
3E03E0
1FFFC0
07FF00
01FC00
ENDCHAR
STARTCHAR Odieresis
ENCODING 214
SWIDTH 778 0
DWIDTH 25 0
BBX 21 27 2 0
BITMAP
039C00
039C00
039C00
000000
01FC00
07FF00
0FFFC0
1E03E0
3C01E0
7800F0
700070
700078
E00038
E00038
E00038
E00038
E00038
E00038
E00038
F00078
700070
7800F0
3C01E0
3E03E0
1FFFC0
07FF00
01FC00
ENDCHAR
STARTCHAR multiply
ENCODING 215
SWIDTH 600 0
DWIDTH 19 0
BBX 15 15 2 1
BITMAP
600C
F01E
F83E
7C7C
3EF8
1FF0
0FE0
07C0
0FE0
1FF0
3EF8
7C7C
F83E
F01E
600C
ENDCHAR
STARTCHAR Oslash
ENCODING 216
SWIDTH 778 0
DWIDTH 25 0
BBX 21 23 2 0
BITMAP
01FC30
07FF60
0FFFC0
1E03E0
3C01E0
7803F0
700670
700678
E00C38
E01838
E03038
E02038
E06038
E0C038
E18038
F10078
730070
7E00F0
3C01E0
1E03E0
1FFFC0
37FF00
61FC00
ENDCHAR
STARTCHAR Ugrave
ENCODING 217
SWIDTH 722 0
DWIDTH 23 0
BBX 17 29 3 0
BITMAP
0E0000
070000
030000
018000
00C000
000000
E00380
E00380
E00380
E00380
E00380
E00380
E00380
E00380
E00380
E00380
E00380
E00380
E00380
E00380
E00380
E00380
E00380
700700
700700
7C1F00
3FFE00
1FFC00
07F000
ENDCHAR
STARTCHAR Uacute
ENCODING 218
SWIDTH 722 0
DWIDTH 23 0
BBX 17 29 3 0
BITMAP
007000
00E000
01C000
018000
030000
000000
E00380
E00380
E00380
E00380
E00380
E00380
E00380
E00380
E00380
E00380
E00380
E00380
E00380
E00380
E00380
E00380
E00380
700700
700700
7C1F00
3FFE00
1FFC00
07F000
ENDCHAR
STARTCHAR Ucircumflex
ENCODING 219
SWIDTH 722 0
DWIDTH 23 0
BBX 17 29 3 0
BITMAP
01C000
03E000
076000
063000
0E3800
000000
E00380
E00380
E00380
E00380
E00380
E00380
E00380
E00380
E00380
E00380
E00380
E00380
E00380
E00380
E00380
E00380
E00380
700700
700700
7C1F00
3FFE00
1FFC00
07F000
ENDCHAR
STARTCHAR Udieresis
ENCODING 220
SWIDTH 722 0
DWIDTH 23 0
BBX 17 27 3 0
BITMAP
0E7000
0E7000
0E7000
000000
E00380
E00380
E00380
E00380
E00380
E00380
E00380
E00380
E00380
E00380
E00380
E00380
E00380
E00380
E00380
E00380
E00380
700700
700700
7C1F00
3FFE00
1FFC00
07F000
ENDCHAR
STARTCHAR Yacute
ENCODING 221
SWIDTH 667 0
DWIDTH 21 0
BBX 21 29 0 0
BITMAP
001C00
003800
007000
006000
00C000
000000
F00078
7800F0
3C01E0
1C01C0
1E03C0
0F0380
070700
078F00
038E00
03DE00
01FC00
00F800
00F800
007000
007000
007000
007000
007000
007000
007000
007000
007000
007000
ENDCHAR
STARTCHAR Thorn
ENCODING 222
SWIDTH 556 0
DWIDTH 18 0
BBX 14 23 3 0
BITMAP
E000
E000
E000
FF80
FFE0
FFF0
E078
E03C
E01C
E01C
E01C
E01C
E03C
E078
FFF0
FFE0
FF80
E000
E000
E000
E000
E000
E000
ENDCHAR
STARTCHAR germandbls
ENCODING 223
SWIDTH 611 0
DWIDTH 20 0
BBX 15 24 3 0
BITMAP
07C0
1FF0
3EF8
783C
701C
E01C
E01C
E01C
E01C
E038
E3F0
E3E0
E3F8
E03C
E01E
E00E
E00E
E00E
E00E
E00E
E01C
E6FC
E7F8
E7E0
ENDCHAR
STARTCHAR agrave
ENCODING 224
SWIDTH 556 0
DWIDTH 18 0
BBX 14 23 1 0
BITMAP
1C00
0E00
0600
0300
0180
0000
0FE0
3FF0
3FF8
2038
001C
001C
001C
0FFC
3FFC
7C1C
F01C
E01C
E01C
F03C
7DFC
7FDC
1F9C
ENDCHAR
STARTCHAR aacute
ENCODING 225
SWIDTH 556 0
DWIDTH 18 0
BBX 14 23 1 0
BITMAP
00E0
01C0
0380
0300
0600
0000
0FE0
3FF0
3FF8
2038
001C
001C
001C
0FFC
3FFC
7C1C
F01C
E01C
E01C
F03C
7DFC
7FDC
1F9C
ENDCHAR
STARTCHAR acircumflex
ENCODING 226
SWIDTH 556 0
DWIDTH 18 0
BBX 14 23 1 0
BITMAP
0380
07C0
0EC0
0C60
1C70
0000
0FE0
3FF0
3FF8
2038
001C
001C
001C
0FFC
3FFC
7C1C
F01C
E01C
E01C
F03C
7DFC
7FDC
1F9C
ENDCHAR
STARTCHAR atilde
ENCODING 227
SWIDTH 556 0
DWIDTH 18 0
BBX 14 22 1 0
BITMAP
1F08
3FF8
21F0
0000
0000
0FE0
3FF0
3FF8
2038
001C
001C
001C
0FFC
3FFC
7C1C
F01C
E01C
E01C
F03C
7DFC
7FDC
1F9C
ENDCHAR
STARTCHAR adieresis
ENCODING 228
SWIDTH 556 0
DWIDTH 18 0
BBX 14 22 1 0
BITMAP
1CE0
1CE0
1CE0
0000
0000
0FE0
3FF0
3FF8
2038
001C
001C
001C
0FFC
3FFC
7C1C
F01C
E01C
E01C
F03C
7DFC
7FDC
1F9C
ENDCHAR
STARTCHAR aring
ENCODING 229
SWIDTH 556 0
DWIDTH 18 0
BBX 14 25 1 0
BITMAP
0380
06C0
0C60
0820
0C60
06C0
0380
0000
0FE0
3FF0
3FF8
2038
001C
001C
001C
0FFC
3FFC
7C1C
F01C
E01C
E01C
F03C
7DFC
7FDC
1F9C
ENDCHAR
STARTCHAR ae
ENCODING 230
SWIDTH 889 0
DWIDTH 28 0
BBX 25 17 2 0
BITMAP
0FC1F800
3FF3FE00
3DFFDF00
203E0700
001E0380
001C0380
019C0380
3FFFFF80
7FFFFF80
F01C0000
E01C0000
E03E0000
E03E0000
E07F0100
7FF7EF00
3FE3FF00
1F80FC00
ENDCHAR
STARTCHAR ccedilla
ENCODING 231
SWIDTH 444 0
DWIDTH 14 0
BBX 12 24 1 -7
BITMAP
07E0
1FF0
3F70
7800
7000
F000
E000
E000
E000
E000
E000
7000
7000
3800
3F70
1FF0
07F0
0300
0300
07C0
00E0
00E0
09C0
0F80
ENDCHAR
STARTCHAR egrave
ENCODING 232
SWIDTH 556 0
DWIDTH 18 0
BBX 15 23 1 0
BITMAP
1C00
0E00
0600
0300
0180
0000
07E0
1FF0
3EF8
783C
701C
E01C
E00C
FFFE
FFFE
E000
E000
F000
7000
7804
3F7C
1FFC
07F0
ENDCHAR
STARTCHAR eacute
ENCODING 233
SWIDTH 556 0
DWIDTH 18 0
BBX 15 23 1 0
BITMAP
00E0
01C0
0380
0300
0600
0000
07E0
1FF0
3EF8
783C
701C
E01C
E00C
FFFE
FFFE
E000
E000
F000
7000
7804
3F7C
1FFC
07F0
ENDCHAR
STARTCHAR ecircumflex
ENCODING 234
SWIDTH 556 0
DWIDTH 18 0
BBX 15 23 1 0
BITMAP
0380
07C0
0EC0
0C60
1C70
0000
07E0
1FF0
3EF8
783C
701C
E01C
E00C
FFFE
FFFE
E000
E000
F000
7000
7804
3F7C
1FFC
07F0
ENDCHAR
STARTCHAR edieresis
ENCODING 235
SWIDTH 556 0
DWIDTH 18 0
BBX 15 22 1 0
BITMAP
1CE0
1CE0
1CE0
0000
0000
07E0
1FF0
3EF8
783C
701C
E01C
E00C
FFFE
FFFE
E000
E000
F000
7000
7804
3F7C
1FFC
07F0
ENDCHAR
STARTCHAR igrave
ENCODING 236
SWIDTH 278 0
DWIDTH 9 0
BBX 6 23 0 0
BITMAP
E0
70
30
18
0C
00
1C
1C
1C
1C
1C
1C
1C
1C
1C
1C
1C
1C
1C
1C
1C
1C
1C
ENDCHAR
STARTCHAR iacute
ENCODING 237
SWIDTH 278 0
DWIDTH 9 0
BBX 6 23 2 0
BITMAP
1C
38
70
60
C0
00
70
70
70
70
70
70
70
70
70
70
70
70
70
70
70
70
70
ENDCHAR
STARTCHAR icircumflex
ENCODING 238
SWIDTH 278 0
DWIDTH 9 0
BBX 9 23 0 0
BITMAP
1C00
3E00
7600
6300
E380
0000
1C00
1C00
1C00
1C00
1C00
1C00
1C00
1C00
1C00
1C00
1C00
1C00
1C00
1C00
1C00
1C00
1C00
ENDCHAR
STARTCHAR idieresis
ENCODING 239
SWIDTH 278 0
DWIDTH 9 0
BBX 8 22 0 0
BITMAP
E7
E7
E7
00
00
1C
1C
1C
1C
1C
1C
1C
1C
1C
1C
1C
1C
1C
1C
1C
1C
1C
ENDCHAR
STARTCHAR eth
ENCODING 240
SWIDTH 611 0
DWIDTH 20 0
BBX 17 24 1 0
BITMAP
181800
3E7800
4FF400
07C000
1FF000
3C7800
103800
07FC00
1FFE00
3F7E00
781F00
700F00
F00700
E00700
E00780
E00780
E00780
E00700
F00700
700F00
781E00
3F7C00
1FF800
07E000
ENDCHAR
STARTCHAR ntilde
ENCODING 241
SWIDTH 611 0
DWIDTH 20 0
BBX 14 22 3 0
BITMAP
3E10
7FF0
43E0
0000
0000
E3E0
EFF0
FEF8
F838
F03C
F01C
E01C
E01C
E01C
E01C
E01C
E01C
E01C
E01C
E01C
E01C
E01C
ENDCHAR
STARTCHAR ograve
ENCODING 242
SWIDTH 611 0
DWIDTH 20 0
BBX 16 23 1 0
BITMAP
0E00
0700
0300
0180
00C0
0000
07E0
1FF8
3F7C
781E
700F
F007
E007
E007
E007
E007
E007
F007
700E
781E
3F7C
1FF8
07E0
ENDCHAR
STARTCHAR oacute
ENCODING 243
SWIDTH 611 0
DWIDTH 20 0
BBX 16 23 1 0
BITMAP
0070
00E0
01C0
0180
0300
0000
07E0
1FF8
3F7C
781E
700F
F007
E007
E007
E007
E007
E007
F007
700E
781E
3F7C
1FF8
07E0
ENDCHAR
STARTCHAR ocircumflex
ENCODING 244
SWIDTH 611 0
DWIDTH 20 0
BBX 16 23 1 0
BITMAP
01C0
03E0
0760
0630
0E38
0000
07E0
1FF8
3F7C
781E
700F
F007
E007
E007
E007
E007
E007
F007
700E
781E
3F7C
1FF8
07E0
ENDCHAR
STARTCHAR otilde
ENCODING 245
SWIDTH 611 0
DWIDTH 20 0
BBX 16 22 1 0
BITMAP
0F84
1FFC
10F8
0000
0000
07E0
1FF8
3F7C
781E
700F
F007
E007
E007
E007
E007
E007
F007
700E
781E
3F7C
1FF8
07E0
ENDCHAR
STARTCHAR odieresis
ENCODING 246
SWIDTH 611 0
DWIDTH 20 0
BBX 16 22 1 0
BITMAP
0E70
0E70
0E70
0000
0000
07E0
1FF8
3F7C
781E
700F
F007
E007
E007
E007
E007
E007
F007
700E
781E
3F7C
1FF8
07E0
ENDCHAR
STARTCHAR divide
ENCODING 247
SWIDTH 600 0
DWIDTH 19 0
BBX 17 19 1 -1
BITMAP
01C000
03E000
03E000
03E000
01C000
000000
000000
000000
FFFF80
FFFF80
FFFF80
000000
000000
000000
01C000
03E000
03E000
03E000
01C000
ENDCHAR
STARTCHAR oslash
ENCODING 248
SWIDTH 611 0
DWIDTH 20 0
BBX 16 19 1 -1
BITMAP
0002
07E3
1FFE
3FFC
781E
701F
F027
E067
E0C7
E187
E107
E207
F407
7C0E
781E
3F7C
3FF8
47E0
4000
ENDCHAR
STARTCHAR ugrave
ENCODING 249
SWIDTH 611 0
DWIDTH 20 0
BBX 14 23 3 0
BITMAP
3800
1C00
0C00
0600
0300
0000
E01C
E01C
E01C
E01C
E01C
E01C
E01C
E01C
E01C
E01C
E01C
E03C
E03C
707C
7DFC
3FDC
1F1C
ENDCHAR
STARTCHAR uacute
ENCODING 250
SWIDTH 611 0
DWIDTH 20 0
BBX 14 23 3 0
BITMAP
01C0
0380
0700
0600
0C00
0000
E01C
E01C
E01C
E01C
E01C
E01C
E01C
E01C
E01C
E01C
E01C
E03C
E03C
707C
7DFC
3FDC
1F1C
ENDCHAR
STARTCHAR ucircumflex
ENCODING 251
SWIDTH 611 0
DWIDTH 20 0
BBX 14 23 3 0
BITMAP
0700
0F80
1D80
18C0
38E0
0000
E01C
E01C
E01C
E01C
E01C
E01C
E01C
E01C
E01C
E01C
E01C
E03C
E03C
707C
7DFC
3FDC
1F1C
ENDCHAR
STARTCHAR udieresis
ENCODING 252
SWIDTH 611 0
DWIDTH 20 0
BBX 14 22 3 0
BITMAP
39C0
39C0
39C0
0000
0000
E01C
E01C
E01C
E01C
E01C
E01C
E01C
E01C
E01C
E01C
E01C
E03C
E03C
707C
7DFC
3FDC
1F1C
ENDCHAR
STARTCHAR yacute
ENCODING 253
SWIDTH 500 0
DWIDTH 16 0
BBX 15 30 0 -7
BITMAP
0070
00E0
01C0
0180
0300
0000
E00E
E00E
701C
701C
7018
3838
3838
1830
1C70
1C70
0C60
0EE0
0EE0
06C0
07C0
07C0
0380
0380
0300
0700
0700
5E00
7C00
7800
ENDCHAR
STARTCHAR thorn
ENCODING 254
SWIDTH 611 0
DWIDTH 20 0
BBX 15 31 3 -7
BITMAP
E000
E000
E000
E000
E000
E000
E000
E3E0
EFF8
FEFC
F81C
F01E
F00E
E00E
E00E
E00E
E00E
E00E
F00E
F01E
F83C
FEFC
EFF8
E7E0
E000
E000
E000
E000
E000
E000
E000
ENDCHAR
STARTCHAR ydieresis
ENCODING 255
SWIDTH 500 0
DWIDTH 16 0
BBX 15 29 0 -7
BITMAP
0E70
0E70
0E70
0000
0000
E00E
E00E
701C
701C
7018
3838
3838
1830
1C70
1C70
0C60
0EE0
0EE0
06C0
07C0
07C0
0380
0380
0300
0700
0700
5E00
7C00
7800
ENDCHAR
STARTCHAR .notdef
ENCODING -1
SWIDTH 500 0
DWIDTH 16 0
BBX 12 17 2 0
BITMAP
FFF0
8010
8010
8010
8010
8010
8010
8010
8010
8010
8010
8010
8010
8010
8010
8010
FFF0
ENDCHAR
STARTCHAR quoteright
ENCODING -1
SWIDTH 278 0
DWIDTH 9 0
BBX 6 8 2 15
BITMAP
3C
38
78
70
70
70
E0
E0
ENDCHAR
STARTCHAR quoteleft
ENCODING -1
SWIDTH 278 0
DWIDTH 9 0
BBX 6 8 1 15
BITMAP
1C
38
38
38
78
70
70
F0
ENDCHAR
STARTCHAR fraction.dup2
ENCODING -1
SWIDTH 167 0
DWIDTH 5 0
BBX 16 24 -5 -1
BITMAP
0003
0006
0006
000C
001C
0018
0038
0030
0060
00E0
00C0
01C0
0180
0300
0300
0600
0E00
0C00
1C00
1800
3000
7000
6000
E000
ENDCHAR
STARTCHAR florin
ENCODING -1
SWIDTH 556 0
DWIDTH 18 0
BBX 15 30 1 -7
BITMAP
001E
007E
007E
00E0
00E0
01E0
01C0
01C0
01C0
01C0
1FFC
1FF8
0380
0380
0380
0380
0700
0700
0700
0700
0700
0E00
0E00
0E00
0E00
0E00
1C00
FC00
F800
F000
ENDCHAR
STARTCHAR quotedblleft
ENCODING -1
SWIDTH 556 0
DWIDTH 18 0
BBX 12 8 3 15
BITMAP
1C70
38F0
38E0
38E0
79E0
71C0
71C0
F3C0
ENDCHAR
STARTCHAR guilsinglleft
ENCODING -1
SWIDTH 278 0
DWIDTH 9 0
BBX 7 13 1 2
BITMAP
0E
0C
1C
38
70
70
E0
70
70
38
1C
0C
0E
ENDCHAR
STARTCHAR guilsinglright
ENCODING -1
SWIDTH 278 0
DWIDTH 9 0
BBX 7 13 1 2
BITMAP
E0
60
70
38
1C
1C
0E
1C
1C
38
70
60
E0
ENDCHAR
STARTCHAR fi
ENCODING -1
SWIDTH 667 0
DWIDTH 21 0
BBX 17 24 1 0
BITMAP
01E380
07E380
0FE380
0E0000
0E0000
0E0000
0E0000
FFE380
FFE380
0E0380
0E0380
0E0380
0E0380
0E0380
0E0380
0E0380
0E0380
0E0380
0E0380
0E0380
0E0380
0E0380
0E0380
0E0380
ENDCHAR
STARTCHAR fl
ENCODING -1
SWIDTH 667 0
DWIDTH 21 0
BBX 17 24 1 0
BITMAP
01E380
07E380
0FE380
0E0380
0E0380
0E0380
0E0380
FFE380
FFE380
0E0380
0E0380
0E0380
0E0380
0E0380
0E0380
0E0380
0E0380
0E0380
0E0380
0E0380
0E0380
0E0380
0E0380
0E0380
ENDCHAR
STARTCHAR endash
ENCODING -1
SWIDTH 500 0
DWIDTH 16 0
BBX 16 2 0 8
BITMAP
FFFF
FFFF
ENDCHAR
STARTCHAR dagger
ENCODING -1
SWIDTH 556 0
DWIDTH 18 0
BBX 13 23 2 0
BITMAP
0700
0700
0700
0700
0700
0700
FFF8
FFF8
0700
0700
0700
0700
0700
0700
0700
0700
0700
0700
0700
0700
0700
0700
0700
ENDCHAR
STARTCHAR daggerdbl
ENCODING -1
SWIDTH 556 0
DWIDTH 18 0
BBX 13 23 2 0
BITMAP
0700
0700
0700
0700
0700
FFF8
FFF8
0700
0700
0700
0700
0700
0700
0700
0700
FFF8
FFF8
0700
0700
0700
0700
0700
0700
ENDCHAR
STARTCHAR bullet
ENCODING -1
SWIDTH 500 0
DWIDTH 16 0
BBX 11 11 2 6
BITMAP
1F00
3F80
7FC0
FFE0
FFE0
FFE0
FFE0
FFE0
7FC0
3F80
1F00
ENDCHAR
STARTCHAR quotesinglbase
ENCODING -1
SWIDTH 278 0
DWIDTH 9 0
BBX 6 8 2 -4
BITMAP
3C
38
78
70
70
70
E0
E0
ENDCHAR
STARTCHAR quotedblbase
ENCODING -1
SWIDTH 556 0
DWIDTH 18 0
BBX 12 8 3 -4
BITMAP
3CF0
38E0
79E0
71C0
71C0
71C0
E380
E380
ENDCHAR
STARTCHAR quotedblright
ENCODING -1
SWIDTH 556 0
DWIDTH 18 0
BBX 12 8 3 15
BITMAP
3CF0
38E0
79E0
71C0
71C0
71C0
E380
E380
ENDCHAR
STARTCHAR ellipsis
ENCODING -1
SWIDTH 1000 0
DWIDTH 32 0
BBX 26 4 4 0
BITMAP
F01E03C0
F01E03C0
F01E03C0
F01E03C0
ENDCHAR
STARTCHAR perthousand
ENCODING -1
SWIDTH 1000 0
DWIDTH 32 0
BBX 32 24 0 -1
BITMAP
1E006000
7F80C000
7381C000
E1C18000
E1C38000
E1C30000
E1C60000
E1C60000
E1CC0000
E1DC0000
739BC078
7FBFF1FE
1E3E71CE
007C3B87
00FC3B87
00DC3B87
01DC3B87
019C3B87
031C3B87
031C3B87
060E71CE
0E0FF1FE
0C03C078
1C000000
ENDCHAR
STARTCHAR circumflex
ENCODING -1
SWIDTH 278 0
DWIDTH 9 0
BBX 9 5 0 18
BITMAP
1C00
3E00
7600
6300
E380
ENDCHAR
STARTCHAR tilde
ENCODING -1
SWIDTH 278 0
DWIDTH 9 0
BBX 11 3 -1 19
BITMAP
7C20
FFE0
87C0
ENDCHAR
STARTCHAR breve
ENCODING -1
SWIDTH 278 0
DWIDTH 9 0
BBX 10 4 0 19
BITMAP
C0C0
E1C0
7F80
3F00
ENDCHAR
STARTCHAR dotaccent
ENCODING -1
SWIDTH 278 0
DWIDTH 9 0
BBX 3 3 3 19
BITMAP
E0
E0
E0
ENDCHAR
STARTCHAR ring
ENCODING -1
SWIDTH 278 0
DWIDTH 9 0
BBX 7 7 1 18
BITMAP
38
6C
C6
82
C6
6C
38
ENDCHAR
STARTCHAR hungarumlaut
ENCODING -1
SWIDTH 278 0
DWIDTH 9 0
BBX 12 5 -1 18
BITMAP
1C70
38E0
30C0
6180
E380
ENDCHAR
STARTCHAR ogonek
ENCODING -1
SWIDTH 278 0
DWIDTH 9 0
BBX 6 7 2 -7
BITMAP
18
30
60
E0
C0
EC
78
ENDCHAR
STARTCHAR caron
ENCODING -1
SWIDTH 278 0
DWIDTH 9 0
BBX 9 5 0 19
BITMAP
E380
6300
3700
3E00
1C00
ENDCHAR
STARTCHAR emdash
ENCODING -1
SWIDTH 1000 0
DWIDTH 32 0
BBX 32 2 0 8
BITMAP
FFFFFFFF
FFFFFFFF
ENDCHAR
STARTCHAR OE
ENCODING -1
SWIDTH 944 0
DWIDTH 30 0
BBX 26 23 2 0
BITMAP
00FFFFC0
03FFFFC0
0FFFFFC0
1F038000
3C038000
78038000
70038000
F0038000
E0038000
E0038000
E003FFC0
E003FFC0
E003FFC0
E0038000
E0038000
70038000
70038000
78038000
3C038000
1F038000
0FFFFFC0
03FFFFC0
00FFFFC0
ENDCHAR
STARTCHAR dotlessi
ENCODING -1
SWIDTH 278 0
DWIDTH 9 0
BBX 3 17 3 0
BITMAP
E0
E0
E0
E0
E0
E0
E0
E0
E0
E0
E0
E0
E0
E0
E0
E0
E0
ENDCHAR
STARTCHAR oe
ENCODING -1
SWIDTH 944 0
DWIDTH 30 0
BBX 27 17 1 0
BITMAP
07E07E00
1FF8FF80
3EFDF7C0
781F81C0
700F80E0
F00F00E0
E00700E0
E007FFE0
E007FFE0
E0070000
E0070000
E00F8000
700F8000
781FC040
3E7DFBC0
1FF8FFC0
07E03F00
ENDCHAR
STARTCHAR trademark
ENCODING -1
SWIDTH 990 0
DWIDTH 32 0
BBX 28 13 2 10
BITMAP
FFE3C0F0
FFE3C0F0
0C03C1F0
0C03E1B0
0C0361B0
0C0373B0
0C037330
0C033730
0C033F30
0C031E30
0C031E30
0C031C30
0C030C30
ENDCHAR
STARTCHAR Ydieresis
ENCODING -1
SWIDTH 667 0
DWIDTH 23 0
BBX 21 27 1 0
BITMAP
038E00
038E00
038E00
000000
F00078
7800F0
3C01E0
1C01C0
1E03C0
0F0380
070700
078F00
03CE00
03DE00
01FC00
00F800
00F800
007000
007000
007000
007000
007000
007000
007000
007000
007000
007000
ENDCHAR
STARTCHAR Lslash
ENCODING -1
SWIDTH 500 0
DWIDTH 16 0
BBX 15 23 1 0
BITMAP
3800
3800
3800
3800
3800
3800
3800
3820
3860
39E0
3BC0
3F00
3C00
7800
F800
F800
3800
3800
3800
3800
3FFE
3FFE
3FFE
ENDCHAR
STARTCHAR lslash
ENCODING -1
SWIDTH 278 0
DWIDTH 9 0
BBX 7 24 1 0
BITMAP
38
38
38
38
38
38
38
3A
3E
3E
38
78
F8
F8
B8
38
38
38
38
38
38
38
38
38
ENDCHAR
STARTCHAR minus
ENCODING -1
SWIDTH 600 0
DWIDTH 19 0
BBX 17 3 1 7
BITMAP
FFFF80
FFFF80
FFFF80
ENDCHAR
STARTCHAR Scaron
ENCODING -1
SWIDTH 500 0
DWIDTH 16 0
BBX 13 29 1 0
BITMAP
1C70
0C60
06E0
07C0
0380
0000
07E0
1FF0
3FF0
7810
7000
E000
F000
7000
7800
3E00
1F80
0FE0
03F0
00F0
0078
0038
0038
0038
0078
40F0
7FF0
7FE0
3F80
ENDCHAR
STARTCHAR scaron
ENCODING -1
SWIDTH 389 0
DWIDTH 12 0
BBX 10 24 1 0
BITMAP
71C0
3180
1B80
1F00
0E00
0000
0000
1F80
7F80
7F80
E000
E000
E000
F000
7E00
3F00
0F80
03C0
01C0
01C0
81C0
E780
FF80
7E00
ENDCHAR
STARTCHAR Euro
ENCODING -1
SWIDTH 556 0
DWIDTH 18 0
BBX 19 23 0 0
BITMAP
003FC0
00FFE0
01FFC0
07C000
078000
0F0000
0E0000
1E0000
FFFF80
FFFF80
1C0000
1C0000
1C0000
FFFF00
FFFF00
1E0000
0E0000
0F0000
078000
07C000
03FFC0
00FFC0
003FC0
ENDCHAR
ENDFONT
